<svg width="22" height="22" viewBox="0 0 22 22" fill="none" xmlns="http://www.w3.org/2000/svg">
<mask id="mask0_115_605" style="mask-type:alpha" maskUnits="userSpaceOnUse" x="0" y="0" width="22" height="22">
<rect width="22" height="22" fill="#D9D9D9"/>
</mask>
<g mask="url(#mask0_115_605)">
<path d="M4.86536 19.7083C4.40229 19.7083 4.01034 19.5479 3.6895 19.2271C3.36867 18.9063 3.20825 18.5143 3.20825 18.0512V5.78212C3.20825 5.31905 3.36867 4.9271 3.6895 4.60626C4.01034 4.28543 4.40229 4.12501 4.86536 4.12501H6.13448V2.18604H7.54477V4.12501H14.4904V2.18604H15.8654V4.12501H17.1345C17.5976 4.12501 17.9895 4.28543 18.3103 4.60626C18.6312 4.9271 18.7916 5.31905 18.7916 5.78212V18.0512C18.7916 18.5143 18.6312 18.9063 18.3103 19.2271C17.9895 19.5479 17.5976 19.7083 17.1345 19.7083H4.86536ZM4.86536 18.3333H17.1345C17.2051 18.3333 17.2697 18.3039 17.3284 18.2451C17.3872 18.1865 17.4166 18.1218 17.4166 18.0512V9.44879H4.58325V18.0512C4.58325 18.1218 4.61266 18.1865 4.67148 18.2451C4.73015 18.3039 4.79477 18.3333 4.86536 18.3333ZM4.58325 8.07379H17.4166V5.78212C17.4166 5.71153 17.3872 5.64691 17.3284 5.58824C17.2697 5.52942 17.2051 5.50001 17.1345 5.50001H4.86536C4.79477 5.50001 4.73015 5.52942 4.67148 5.58824C4.61266 5.64691 4.58325 5.71153 4.58325 5.78212V8.07379ZM10.9999 12.9039C10.7755 12.9039 10.5842 12.8249 10.4261 12.6667C10.2681 12.5088 10.1891 12.3175 10.1891 12.0929C10.1891 11.8685 10.2681 11.6772 10.4261 11.5191C10.5842 11.3611 10.7755 11.2821 10.9999 11.2821C11.2243 11.2821 11.4156 11.3611 11.5738 11.5191C11.7317 11.6772 11.8107 11.8685 11.8107 12.0929C11.8107 12.3175 11.7317 12.5088 11.5738 12.6667C11.4156 12.8249 11.2243 12.9039 10.9999 12.9039ZM7.33325 12.9039C7.10882 12.9039 6.91754 12.8249 6.75942 12.6667C6.60145 12.5088 6.52246 12.3175 6.52246 12.0929C6.52246 11.8685 6.60145 11.6772 6.75942 11.5191C6.91754 11.3611 7.10882 11.2821 7.33325 11.2821C7.55768 11.2821 7.74896 11.3611 7.90709 11.5191C8.06506 11.6772 8.14404 11.8685 8.14404 12.0929C8.14404 12.3175 8.06506 12.5088 7.90709 12.6667C7.74896 12.8249 7.55768 12.9039 7.33325 12.9039ZM14.6666 12.9039C14.4422 12.9039 14.2509 12.8249 14.0928 12.6667C13.9348 12.5088 13.8558 12.3175 13.8558 12.0929C13.8558 11.8685 13.9348 11.6772 14.0928 11.5191C14.2509 11.3611 14.4422 11.2821 14.6666 11.2821C14.891 11.2821 15.0823 11.3611 15.2404 11.5191C15.3984 11.6772 15.4774 11.8685 15.4774 12.0929C15.4774 12.3175 15.3984 12.5088 15.2404 12.6667C15.0823 12.8249 14.891 12.9039 14.6666 12.9039ZM10.9999 16.5C10.7755 16.5 10.5842 16.421 10.4261 16.2628C10.2681 16.1049 10.1891 15.9137 10.1891 15.6892C10.1891 15.4646 10.2681 15.2734 10.4261 15.1154C10.5842 14.9573 10.7755 14.8782 10.9999 14.8782C11.2243 14.8782 11.4156 14.9573 11.5738 15.1154C11.7317 15.2734 11.8107 15.4646 11.8107 15.6892C11.8107 15.9137 11.7317 16.1049 11.5738 16.2628C11.4156 16.421 11.2243 16.5 10.9999 16.5ZM7.33325 16.5C7.10882 16.5 6.91754 16.421 6.75942 16.2628C6.60145 16.1049 6.52246 15.9137 6.52246 15.6892C6.52246 15.4646 6.60145 15.2734 6.75942 15.1154C6.91754 14.9573 7.10882 14.8782 7.33325 14.8782C7.55768 14.8782 7.74896 14.9573 7.90709 15.1154C8.06506 15.2734 8.14404 15.4646 8.14404 15.6892C8.14404 15.9137 8.06506 16.1049 7.90709 16.2628C7.74896 16.421 7.55768 16.5 7.33325 16.5ZM14.6666 16.5C14.4422 16.5 14.2509 16.421 14.0928 16.2628C13.9348 16.1049 13.8558 15.9137 13.8558 15.6892C13.8558 15.4646 13.9348 15.2734 14.0928 15.1154C14.2509 14.9573 14.4422 14.8782 14.6666 14.8782C14.891 14.8782 15.0823 14.9573 15.2404 15.1154C15.3984 15.2734 15.4774 15.4646 15.4774 15.6892C15.4774 15.9137 15.3984 16.1049 15.2404 16.2628C15.0823 16.421 14.891 16.5 14.6666 16.5Z" fill="#1C1B1F"/>
</g>
</svg>
