<svg width="22" height="22" viewBox="0 0 22 22" fill="none" xmlns="http://www.w3.org/2000/svg">
<rect width="22" height="22" rx="3" fill="#2925A4"/>
<mask id="mask0_254_1128" style="mask-type:alpha" maskUnits="userSpaceOnUse" x="5" y="5" width="12" height="12">
<rect x="5" y="5" width="12" height="12" fill="#D9D9D9"/>
</mask>
<g mask="url(#mask0_254_1128)">
<path d="M10.8989 12.1174C11.2228 12.1174 11.4983 12.0099 11.7253 11.795C11.9521 11.5799 12.0656 11.319 12.0656 11.0122C12.0656 10.7053 11.9521 10.4444 11.7253 10.2293C11.4983 10.0144 11.2228 9.90689 10.8989 9.90689C10.575 9.90689 10.2996 10.0144 10.0726 10.2293C9.8457 10.4444 9.73226 10.7053 9.73226 11.0122C9.73226 11.319 9.8457 11.5799 10.0726 11.795C10.2996 12.0099 10.575 12.1174 10.8989 12.1174ZM8.39893 14.4494H13.3989V14.2198C13.3989 13.9955 13.3353 13.7963 13.2079 13.6223C13.0806 13.4482 12.9062 13.3146 12.6848 13.2214C12.4088 13.1097 12.1223 13.0233 11.8253 12.9622C11.5283 12.901 11.2195 12.8704 10.8989 12.8704C10.5784 12.8704 10.2696 12.901 9.97259 12.9622C9.67559 13.0233 9.38909 13.1097 9.11309 13.2214C8.89165 13.3146 8.71726 13.4482 8.58993 13.6223C8.46259 13.7963 8.39893 13.9955 8.39893 14.2198V14.4494ZM14.6938 17H7.10409C6.76731 17 6.48226 16.8895 6.24893 16.6684C6.01559 16.4474 5.89893 16.1773 5.89893 15.8583V6.14174C5.89893 5.82268 6.01559 5.55263 6.24893 5.33158C6.48226 5.11053 6.76731 5 7.10409 5H12.0913L15.8989 8.60726V15.8583C15.8989 16.1773 15.7823 16.4474 15.5489 16.6684C15.3156 16.8895 15.0305 17 14.6938 17ZM14.6938 16.0526C14.7451 16.0526 14.7921 16.0324 14.8348 15.9918C14.8775 15.9514 14.8989 15.9069 14.8989 15.8583V9.01053L11.6656 5.94737H7.10409C7.05276 5.94737 7.00576 5.96763 6.96309 6.00816C6.92031 6.04858 6.89893 6.09311 6.89893 6.14174V15.8583C6.89893 15.9069 6.92031 15.9514 6.96309 15.9918C7.00576 16.0324 7.05276 16.0526 7.10409 16.0526H14.6938Z" fill="#F9F8F5"/>
</g>
</svg>
