<svg width="24" height="24" viewBox="0 0 24 24" fill="none" xmlns="http://www.w3.org/2000/svg">
<rect x="0.976074" y="0.854004" width="22.125" height="23.1458" rx="3" fill="#EA7275"/>
<path d="M8.84791 17.854C8.51546 17.854 8.23146 17.739 7.99591 17.5089C7.76046 17.2787 7.64274 17.0012 7.64274 16.6763V8.40747H6.97607V7.43024H9.97607V6.854H13.9761V7.43024H16.9761V8.40747H16.3094V16.6763C16.3094 17.0054 16.1927 17.284 15.9594 17.512C15.7261 17.74 15.441 17.854 15.1042 17.854H8.84791ZM15.3094 8.40747H8.64274V16.6763C8.64274 16.7348 8.66196 16.7829 8.70041 16.8204C8.73885 16.858 8.78802 16.8768 8.84791 16.8768H15.1042C15.1556 16.8768 15.2026 16.8559 15.2452 16.8141C15.288 16.7724 15.3094 16.7264 15.3094 16.6763V8.40747ZM10.2454 15.5738H11.2452V9.71044H10.2454V15.5738ZM12.7069 15.5738H13.7067V9.71044H12.7069V15.5738Z" fill="#F9F8F5"/>
</svg>
