<svg width="24" height="24" viewBox="0 0 24 24" fill="none" xmlns="http://www.w3.org/2000/svg">
<mask id="mask0_49_470" style="mask-type:alpha" maskUnits="userSpaceOnUse" x="0" y="0" width="24" height="24">
<rect width="24" height="24" fill="#D9D9D9"/>
</mask>
<g mask="url(#mask0_49_470)">
<path d="M5.26925 21.5C4.78275 21.5 4.36625 21.3258 4.01975 20.9775C3.67325 20.6292 3.5 20.2104 3.5 19.7213V8.08652C3.5 7.59735 3.67325 7.1786 4.01975 6.83027C4.36625 6.48193 4.78275 6.30777 5.26925 6.30777H6.4135V1.88477H17.596V6.30777H18.7308C19.2231 6.30777 19.641 6.48193 19.9845 6.83027C20.3282 7.1786 20.5 7.59735 20.5 8.08652V19.7213C20.5 20.2104 20.3282 20.6292 19.9845 20.9775C19.641 21.3258 19.2231 21.5 18.7308 21.5H5.26925ZM7.9135 6.30777H16.0962V3.38477H7.9135V6.30777ZM5.26925 20H18.7308C18.8013 20 18.8638 19.9712 18.9183 19.9135C18.9727 19.8558 19 19.7918 19 19.7213V8.08652C19 8.01602 18.9727 7.95193 18.9183 7.89427C18.8638 7.8366 18.8013 7.80777 18.7308 7.80777H5.26925C5.19875 7.80777 5.13625 7.8366 5.08175 7.89427C5.02725 7.95193 5 8.01602 5 8.08652V19.7213C5 19.7918 5.02725 19.8558 5.08175 19.9135C5.13625 19.9712 5.19875 20 5.26925 20ZM11.9905 18.6153C13.2967 18.6153 14.41 18.155 15.3305 17.2345C16.2512 16.314 16.7115 15.2054 16.7115 13.9088C16.7115 12.6119 16.2512 11.5017 15.3305 10.578C14.41 9.65418 13.2967 9.19227 11.9905 9.19227C10.6895 9.19227 9.58058 9.65418 8.66375 10.578C7.74692 11.5017 7.2885 12.6119 7.2885 13.9088C7.2885 15.2054 7.74692 16.314 8.66375 17.2345C9.58058 18.155 10.6895 18.6153 11.9905 18.6153ZM11.9948 17.4423C11.0188 17.4423 10.1875 17.099 9.501 16.4125C8.8145 15.726 8.47125 14.893 8.47125 13.9135C8.47125 12.934 8.81475 12.101 9.50175 11.4145C10.1889 10.7278 11.0185 10.3845 11.9905 10.3845C12.9677 10.3845 13.8017 10.7278 14.4925 11.4145C15.1833 12.101 15.5288 12.934 15.5288 13.9135C15.5288 14.893 15.1838 15.726 14.494 16.4125C13.804 17.099 12.9709 17.4423 11.9948 17.4423ZM13.1115 15.6385L13.725 15.025L12.4327 13.723V11.5193H11.5673V14.0845L13.1115 15.6385Z" fill="#F9F8F5"/>
</g>
</svg>
