<svg width="23" height="23" viewBox="0 0 23 23" fill="none" xmlns="http://www.w3.org/2000/svg">
<rect width="22.9761" height="23" rx="3" fill="#6FBB60"/>
<path d="M6.2409 18C5.89414 18 5.60063 17.8799 5.36038 17.6396C5.12013 17.3994 5 17.1059 5 16.7591V7.57155C5 7.22478 5.12013 6.93128 5.36038 6.69103C5.60063 6.45077 5.89414 6.33065 6.2409 6.33065H12.1825L11.1528 7.3603H6.2409C6.18804 7.3603 6.13965 7.38232 6.09572 7.42637C6.05167 7.4703 6.02965 7.51869 6.02965 7.57155V16.7591C6.02965 16.812 6.05167 16.8604 6.09572 16.9043C6.13965 16.9483 6.18804 16.9704 6.2409 16.9704H15.4285C15.4813 16.9704 15.5297 16.9483 15.5736 16.9043C15.6177 16.8604 15.6397 16.812 15.6397 16.7591V11.8036L16.6694 10.7739V16.7591C16.6694 17.1059 16.5492 17.3994 16.309 17.6396C16.0687 17.8799 15.7752 18 15.4285 18H6.2409ZM9.11859 13.8814V11.5251L15.3375 5.30632C15.4439 5.19981 15.5609 5.12213 15.6886 5.07328C15.8162 5.02442 15.946 5 16.078 5C16.2126 5 16.342 5.02442 16.466 5.07328C16.5901 5.12213 16.7032 5.19758 16.8053 5.29963L17.6673 6.15904C17.7667 6.26555 17.843 6.38305 17.8963 6.51152C17.9495 6.64 17.9761 6.77025 17.9761 6.90228C17.9761 7.0343 17.9535 7.16232 17.9082 7.28633C17.8629 7.41046 17.787 7.52573 17.6805 7.63213L11.4418 13.8814H9.11859ZM10.1482 12.8518H11.0037L15.2819 8.5734L14.8543 8.14575L14.3962 7.70489L10.1482 11.9529V12.8518Z" fill="#F9F8F5"/>
</svg>
