<svg width="20" height="20" viewBox="0 0 20 20" fill="none" xmlns="http://www.w3.org/2000/svg">
<mask id="mask0_104_258" style="mask-type:alpha" maskUnits="userSpaceOnUse" x="0" y="0" width="20" height="20">
<rect width="20" height="20" fill="#D9D9D9"/>
</mask>
<g mask="url(#mask0_104_258)">
<path d="M3.75 17.0834V15.8334H16.25V17.0834H3.75ZM6.72271 13.8461C5.90229 13.8461 5.20174 13.5598 4.62104 12.9872C4.04035 12.4145 3.75 11.7233 3.75 10.9136V2.91675H16.3781C16.8012 2.91675 17.1634 3.0639 17.4648 3.35821C17.766 3.65265 17.9167 4.01029 17.9167 4.43112V6.61071C17.9167 7.03154 17.766 7.38918 17.4648 7.68362C17.1634 7.97793 16.8012 8.12508 16.3781 8.12508H14.7115V10.9136C14.7115 11.7233 14.4212 12.4145 13.8406 12.9872C13.2599 13.5598 12.5593 13.8461 11.7388 13.8461H6.72271ZM6.72271 12.5963H11.7388C12.2125 12.5963 12.6181 12.4312 12.9554 12.1009C13.2928 11.7708 13.4615 11.3739 13.4615 10.9103V4.16675H5V10.9134C5 11.3772 5.16868 11.7736 5.50604 12.1026C5.8434 12.4317 6.24896 12.5963 6.72271 12.5963ZM14.7115 6.87508H16.3781C16.4583 6.87508 16.5264 6.84973 16.5825 6.79904C16.6386 6.74821 16.6667 6.68543 16.6667 6.61071V4.43112C16.6667 4.3564 16.6386 4.29362 16.5825 4.24279C16.5264 4.1921 16.4583 4.16675 16.3781 4.16675H14.7115V6.87508ZM6.72271 12.5963H5H13.4615H6.72271Z" fill="#1C1B1F"/>
</g>
</svg>
