<svg width="16" height="17" viewBox="0 0 16 17" fill="none" xmlns="http://www.w3.org/2000/svg">
<mask id="mask0_43_156" style="mask-type:alpha" maskUnits="userSpaceOnUse" x="0" y="0" width="16" height="17">
<rect y="0.69751" width="15.605" height="15.605" fill="#D9D9D9"/>
</mask>
<g mask="url(#mask0_43_156)">
<path d="M7.80249 13.7017C7.44488 13.7017 7.13874 13.5743 6.88407 13.3197C6.62941 13.065 6.50208 12.7589 6.50208 12.4012C6.50208 12.0436 6.62941 11.7375 6.88407 11.4828C7.13874 11.2282 7.44488 11.1008 7.80249 11.1008C8.1601 11.1008 8.46624 11.2282 8.72091 11.4828C8.97557 11.7375 9.10291 12.0436 9.10291 12.4012C9.10291 12.7589 8.97557 13.065 8.72091 13.3197C8.46624 13.5743 8.1601 13.7017 7.80249 13.7017ZM7.80249 9.80042C7.44488 9.80042 7.13874 9.67308 6.88407 9.41842C6.62941 9.16375 6.50208 8.85761 6.50208 8.5C6.50208 8.14239 6.62941 7.83625 6.88407 7.58158C7.13874 7.32692 7.44488 7.19958 7.80249 7.19958C8.1601 7.19958 8.46624 7.32692 8.72091 7.58158C8.97557 7.83625 9.10291 8.14239 9.10291 8.5C9.10291 8.85761 8.97557 9.16375 8.72091 9.41842C8.46624 9.67308 8.1601 9.80042 7.80249 9.80042ZM7.80249 5.89917C7.44488 5.89917 7.13874 5.77184 6.88407 5.51717C6.62941 5.26251 6.50208 4.95637 6.50208 4.59875C6.50208 4.24114 6.62941 3.935 6.88407 3.68034C7.13874 3.42567 7.44488 3.29834 7.80249 3.29834C8.1601 3.29834 8.46624 3.42567 8.72091 3.68034C8.97557 3.935 9.10291 4.24114 9.10291 4.59875C9.10291 4.95637 8.97557 5.26251 8.72091 5.51717C8.46624 5.77184 8.1601 5.89917 7.80249 5.89917Z" fill="#6C6D70"/>
</g>
</svg>
