<svg width="40" height="40" viewBox="0 0 40 40" fill="none" xmlns="http://www.w3.org/2000/svg">
<circle cx="20" cy="20" r="20" fill="#F9F8F5" fill-opacity="0.2"/>
<mask id="mask0_80_20" style="mask-type:alpha" maskUnits="userSpaceOnUse" x="8" y="8" width="24" height="24">
<rect x="8" y="8" width="24" height="24" fill="#D9D9D9"/>
</mask>
<g mask="url(#mask0_80_20)">
<path d="M15.1539 28C14.5556 28 14.047 27.7874 13.6281 27.3623C13.2094 26.9372 13 26.421 13 25.8137V14.2025C13 13.5907 13.2094 13.0707 13.6281 12.6423C14.047 12.2141 14.5556 12 15.1539 12H23.9593V24.8907H15.1539C14.8995 24.8907 14.6827 24.979 14.5038 25.1556C14.3248 25.3323 14.2353 25.5512 14.2353 25.8124C14.2353 26.0735 14.3248 26.2928 14.5038 26.4705C14.6827 26.6481 14.8995 26.7368 15.1539 26.7368H25.7647V13.6842H27V28H15.1539ZM17.276 23.6276H22.724V13.2632H17.276V23.6276ZM16.0407 23.6276V13.2632H15.1539C14.8936 13.2632 14.6754 13.3547 14.4994 13.5377C14.3233 13.7207 14.2353 13.9423 14.2353 14.2025V23.872C14.3778 23.8029 14.5234 23.7449 14.6722 23.6979C14.821 23.651 14.9815 23.6276 15.1539 23.6276H16.0407Z" fill="#F9F8F5"/>
</g>
</svg>
