<svg width="31" height="30" viewBox="0 0 31 30" fill="none" xmlns="http://www.w3.org/2000/svg">
<mask id="mask0_43_113" style="mask-type:alpha" maskUnits="userSpaceOnUse" x="0" y="0" width="31" height="30">
<rect x="0.5" width="30" height="30" fill="#D9D9D9"/>
</mask>
<g mask="url(#mask0_43_113)">
<path d="M15.1337 19.8936L16.3936 18.6337L12.6603 14.8965V9.52446H10.8505V15.6105L15.1337 19.8936ZM22.6141 24.8612V22.8565C24.1022 22.1527 25.2785 21.1171 26.1432 19.7497C27.0079 18.3823 27.4402 16.8842 27.4402 15.2554C27.4402 13.6266 27.0079 12.1285 26.1432 10.7611C25.2785 9.39375 24.1022 8.35815 22.6141 7.65435V5.64971C24.6204 6.41384 26.2279 7.67023 27.4366 9.41889C28.6455 11.1675 29.25 13.1131 29.25 15.2554C29.25 17.3978 28.6455 19.3433 27.4366 21.092C26.2279 22.8406 24.6204 24.097 22.6141 24.8612ZM11.756 25.5109C10.3325 25.5109 8.99904 25.2417 7.75551 24.7034C6.51179 24.1651 5.42743 23.4334 4.50243 22.5084C3.57743 21.5834 2.84577 20.4994 2.30746 19.2563C1.76915 18.0129 1.5 16.6795 1.5 15.256C1.5 13.8325 1.76915 12.499 2.30746 11.2555C2.84577 10.0118 3.57743 8.92743 4.50243 8.00243C5.42743 7.07743 6.51149 6.34578 7.75461 5.80747C8.99793 5.26916 10.3313 5 11.7548 5C13.1783 5 14.5118 5.26916 15.7554 5.80747C16.9991 6.34578 18.0834 7.07743 19.0084 8.00243C19.9334 8.92743 20.6651 10.0115 21.2034 11.2546C21.7417 12.4979 22.0109 13.8313 22.0109 15.2548C22.0109 16.6783 21.7417 18.0118 21.2034 19.2554C20.6651 20.4991 19.9334 21.5834 19.0084 22.5084C18.0834 23.4334 16.9994 24.1651 15.7563 24.7034C14.5129 25.2417 13.1795 25.5109 11.756 25.5109ZM11.7554 23.7011C14.1082 23.7011 16.1039 22.8817 17.7428 21.2428C19.3817 19.6039 20.2011 17.6082 20.2011 15.2554C20.2011 12.9027 19.3817 10.9069 17.7428 9.26807C16.1039 7.62921 14.1082 6.80978 11.7554 6.80978C9.40272 6.80978 7.40693 7.62921 5.76807 9.26807C4.12921 10.9069 3.30978 12.9027 3.30978 15.2554C3.30978 17.6082 4.12921 19.6039 5.76807 21.2428C7.40693 22.8817 9.40272 23.7011 11.7554 23.7011Z" fill="#F9F8F5"/>
</g>
</svg>
