<svg width="31" height="30" viewBox="0 0 31 30" fill="none" xmlns="http://www.w3.org/2000/svg">
<mask id="mask0_43_123" style="mask-type:alpha" maskUnits="userSpaceOnUse" x="0" y="0" width="31" height="30">
<rect x="0.5" width="30" height="30" fill="#D9D9D9"/>
</mask>
<g mask="url(#mask0_43_123)">
<path d="M9.00969 21.1056C8.37823 21.1056 7.84375 20.8869 7.40625 20.4494C6.96875 20.0119 6.75 19.4775 6.75 18.8463V6.49033C6.75 5.85908 6.96875 5.32471 7.40625 4.88721C7.84375 4.44971 8.37823 4.23096 9.00969 4.23096H26.3653C26.9968 4.23096 27.5312 4.44971 27.9688 4.88721C28.4062 5.32471 28.625 5.85908 28.625 6.49033V18.8463C28.625 19.4775 28.4062 20.0119 27.9688 20.4494C27.5312 20.8869 26.9968 21.1056 26.3653 21.1056H9.00969ZM17.6875 14.8941L8.625 8.35564V18.8463C8.625 18.9584 8.66104 19.0504 8.73312 19.1225C8.80521 19.1948 8.8974 19.231 9.00969 19.231H26.3653C26.4776 19.231 26.5698 19.1948 26.6419 19.1225C26.714 19.0504 26.75 18.9584 26.75 18.8463V8.35564L17.6875 14.8941ZM17.6875 12.601L26.6297 6.17783C26.6057 6.15387 26.5797 6.13585 26.5516 6.12377C26.5236 6.11169 26.4856 6.10564 26.4375 6.10564H8.9375C8.8975 6.10564 8.8574 6.11575 8.81719 6.13596C8.77719 6.15596 8.74521 6.17794 8.72125 6.20189L17.6875 12.601ZM4.63469 25.4806C4.00323 25.4806 3.46875 25.2619 3.03125 24.8244C2.59375 24.3869 2.375 23.8525 2.375 23.2213V9.47127H4.25V23.2213C4.25 23.3334 4.28604 23.4254 4.35813 23.4975C4.43021 23.5696 4.5224 23.6056 4.63469 23.6056H24.1778V25.4806H4.63469ZM26.75 8.29814C26.75 7.89106 26.7359 7.53169 26.7078 7.22002C26.6799 6.90835 26.6539 6.56096 26.6297 6.17783C26.6057 6.15387 26.5797 6.13585 26.5516 6.12377C26.5236 6.11169 26.4856 6.10564 26.4375 6.10564H8.9375C8.8975 6.10564 8.8574 6.11575 8.81719 6.13596C8.77719 6.15596 8.74521 6.17794 8.72125 6.20189C8.69708 6.58502 8.675 6.93033 8.655 7.23783C8.635 7.54554 8.625 7.89898 8.625 8.29814V6.10564H26.75V8.29814Z" fill="#F9F8F5"/>
</g>
</svg>
