<svg width="122" height="134" viewBox="0 0 122 134" fill="none" xmlns="http://www.w3.org/2000/svg">
<g clip-path="url(#clip0_82_18)">
<path d="M58.2519 17.6452C60.4008 17.6399 62.5484 17.7522 64.685 17.9817C64.2021 19.3798 63.8192 20.8104 63.5392 22.2626C61.8003 22.0944 60.0379 22.0091 58.2519 22.0069C46.7164 22.0155 35.4888 25.7246 26.2237 32.5876C16.9586 39.4506 10.146 49.1045 6.78997 60.1265C3.43395 71.1486 3.71199 82.9558 7.58311 93.8081C11.4542 104.66 18.7137 113.984 28.2916 120.404C37.8695 126.825 49.2593 130.003 60.7824 129.47C72.3055 128.937 83.3524 124.721 92.2952 117.444C101.238 110.167 107.603 100.213 110.454 89.0502C113.304 77.887 112.488 66.1046 108.126 55.4395C109.438 54.7533 110.7 53.9739 111.9 53.1073C116.792 64.6192 117.839 77.3983 114.888 89.5515C111.937 101.705 105.145 112.585 95.5173 120.581C85.8896 128.577 73.9388 133.262 61.4357 133.944C48.9326 134.625 36.5423 131.266 26.1006 124.364C15.6588 117.462 7.72119 107.384 3.46366 95.6239C-0.793874 83.8636 -1.14477 71.0464 2.46296 59.0714C6.0707 47.0964 13.4451 36.6005 23.4936 29.139C33.5421 21.6774 45.7301 17.6471 58.2519 17.6452Z" fill="#6C6D70"/>
<path fill-rule="evenodd" clip-rule="evenodd" d="M58.2518 29.1047C59.842 29.1044 61.4313 29.1842 63.0135 29.3437C63.7919 48.8365 82.451 62.8168 101.494 57.9806C105.327 67.2426 106.077 77.49 103.632 87.21C101.188 96.93 95.6783 105.607 87.9176 111.961C80.1569 118.315 70.5563 122.008 60.5331 122.495C50.5099 122.983 40.5954 120.239 32.2533 114.668C23.9113 109.098 17.5838 100.996 14.205 91.559C10.8263 82.1222 10.5754 71.8505 13.4893 62.2604C16.4033 52.6703 22.3277 44.27 30.3879 38.2998C38.448 32.3297 48.2168 29.106 58.2518 29.1047ZM60.7826 70.8367C61.0748 70.9846 61.3534 71.1581 61.615 71.355L79.8124 62.4567C79.9691 62.3853 80.1472 62.3766 80.3101 62.4323C80.4731 62.488 80.6085 62.6039 80.6885 62.7562L82.3398 66.1217C82.4112 66.2782 82.4199 66.456 82.3641 66.6188C82.3084 66.7815 82.1923 66.9167 82.0399 66.9967L63.8425 75.895C63.8304 76.885 63.5549 77.854 63.0442 78.7026C62.5336 79.5513 61.8062 80.249 60.9366 80.7244C60.067 81.1998 59.0865 81.4357 58.0955 81.4079C57.1045 81.3802 56.1387 81.0897 55.2972 80.5664C54.4556 80.0431 53.7685 79.3057 53.3063 78.4298C52.8442 77.5539 52.6235 76.571 52.667 75.5819C52.7105 74.5928 53.0165 73.633 53.5538 72.801C54.091 71.9689 54.8402 71.2945 55.7244 70.8468V57.2065C55.7244 57.1208 55.7413 57.0359 55.7742 56.9566C55.807 56.8774 55.8552 56.8055 55.9159 56.7448C55.9766 56.6842 56.0487 56.6361 56.128 56.6033C56.2073 56.5705 56.2923 56.5536 56.3782 56.5536H60.1322C60.3056 56.5536 60.4719 56.6224 60.5945 56.7448C60.7171 56.8673 60.786 57.0333 60.786 57.2065V70.8434L60.7826 70.8367ZM15.1274 78.335V73.307C15.1283 73.0761 15.2205 72.8549 15.384 72.6916C15.5475 72.5283 15.769 72.4362 16.0002 72.4353H26.5109C26.7427 72.4353 26.965 72.527 27.1292 72.6904C27.2934 72.8538 27.3861 73.0755 27.387 73.307V78.335C27.3861 78.5668 27.2935 78.7888 27.1294 78.9528C26.9653 79.1167 26.743 79.2091 26.5109 79.21H16.0002C15.7687 79.2083 15.5472 79.1154 15.3838 78.9516C15.2204 78.7878 15.1283 78.5662 15.1274 78.335ZM60.7691 118.892H55.7345C55.5024 118.892 55.2801 118.799 55.116 118.635C54.9518 118.471 54.8592 118.249 54.8584 118.017V107.52C54.8601 107.289 54.9531 107.068 55.1171 106.905C55.2812 106.742 55.503 106.65 55.7345 106.649H60.7691C61.0007 106.65 61.2225 106.742 61.3865 106.905C61.5505 107.068 61.6435 107.289 61.6453 107.52V118.017C61.6444 118.249 61.5518 118.471 61.3877 118.635C61.2236 118.799 61.0012 118.892 60.7691 118.892ZM101.38 73.307V78.335C101.379 78.5668 101.286 78.7888 101.122 78.9528C100.958 79.1167 100.736 79.2091 100.503 79.21H89.9793C89.7472 79.2091 89.5249 79.1167 89.3607 78.9528C89.1966 78.7888 89.104 78.5668 89.1031 78.335V73.307C89.104 73.0755 89.1967 72.8538 89.3609 72.6904C89.5252 72.527 89.7475 72.4353 89.9793 72.4353H100.49C100.722 72.4353 100.944 72.527 101.108 72.6904C101.273 72.8538 101.365 73.0755 101.366 73.307H101.38ZM55.7345 32.7529H60.7691C61.0012 32.7538 61.2236 32.8463 61.3877 33.0102C61.5518 33.1741 61.6444 33.3961 61.6453 33.6279V44.1148C61.6444 44.3466 61.5518 44.5686 61.3877 44.7325C61.2236 44.8965 61.0012 44.9889 60.7691 44.9898H55.7345C55.5024 44.9889 55.2801 44.8965 55.116 44.7325C54.9518 44.5686 54.8592 44.3466 54.8584 44.1148V33.6279C54.8592 33.3961 54.9518 33.1741 55.116 33.0102C55.2801 32.8463 55.5024 32.7538 55.7345 32.7529Z" fill="#6C6D70"/>
<path fill-rule="evenodd" clip-rule="evenodd" d="M73.9589 47.9783C70.0232 44.0477 67.3429 39.0398 66.257 33.588C65.1711 28.1361 65.7283 22.4851 67.8583 17.3495C69.9883 12.2139 73.5953 7.82449 78.2233 4.73623C82.8512 1.64798 88.2922 -0.000366211 93.8581 -0.000366211C99.4241 -0.000366211 104.865 1.64798 109.493 4.73623C114.121 7.82449 117.728 12.2139 119.858 17.3495C121.988 22.4851 122.545 28.1361 121.459 33.588C120.373 39.0398 117.693 44.0477 113.757 47.9783C108.48 53.2489 101.322 56.2099 93.8581 56.2099C86.3945 56.2099 79.2366 53.2489 73.9589 47.9783ZM76.1123 41.8968L107.665 10.3858C103.339 7.02445 97.9327 5.3568 92.4624 5.69638C86.9921 6.03597 81.8343 8.35939 77.9588 12.2299C74.0832 16.1004 71.7567 21.2514 71.4167 26.7146C71.0767 32.1777 72.7465 37.5768 76.1123 41.8968ZM111.601 14.2999L80.0483 45.8109C84.374 49.1723 89.7801 50.8399 95.2505 50.5003C100.721 50.1608 105.879 47.8373 109.754 43.9668C113.63 40.0963 115.956 34.9453 116.296 29.4822C116.636 24.019 114.966 18.6199 111.601 14.2999Z" fill="#F9AF2D"/>
</g>
<defs>
<clipPath id="clip0_82_18">
<rect width="122" height="134" fill="white"/>
</clipPath>
</defs>
</svg>
