<svg width="20" height="20" viewBox="0 0 20 20" fill="none" xmlns="http://www.w3.org/2000/svg">
<mask id="mask0_104_254" style="mask-type:alpha" maskUnits="userSpaceOnUse" x="0" y="0" width="20" height="20">
<rect width="20" height="20" fill="#D9D9D9"/>
</mask>
<g mask="url(#mask0_104_254)">
<path d="M3.58983 17.9166C3.16886 17.9166 2.81254 17.7708 2.52087 17.4791C2.22921 17.1874 2.08337 16.8311 2.08337 16.4101V7.75638C2.08337 7.3354 2.22921 6.97909 2.52087 6.68742C2.81254 6.39575 3.16886 6.24992 3.58983 6.24992H7.91671V3.33325C7.91671 2.98714 8.03851 2.69228 8.28212 2.44867C8.52574 2.20506 8.8206 2.08325 9.16671 2.08325H10.8334C11.1795 2.08325 11.4743 2.20506 11.718 2.44867C11.9616 2.69228 12.0834 2.98714 12.0834 3.33325V6.24992H16.4102C16.8312 6.24992 17.1875 6.39575 17.4792 6.68742C17.7709 6.97909 17.9167 7.3354 17.9167 7.75638V16.4101C17.9167 16.8311 17.7709 17.1874 17.4792 17.4791C17.1875 17.7708 16.8312 17.9166 16.4102 17.9166H3.58983ZM3.58983 16.6666H16.4102C16.4851 16.6666 16.5466 16.6426 16.5946 16.5945C16.6427 16.5464 16.6667 16.485 16.6667 16.4101V7.75638C16.6667 7.68152 16.6427 7.62006 16.5946 7.572C16.5466 7.52395 16.4851 7.49992 16.4102 7.49992H12.0834V7.82054C12.0834 8.16124 11.9602 8.45471 11.714 8.70096C11.4677 8.94721 11.1742 9.07034 10.8334 9.07034H9.16671C8.82587 9.07034 8.53233 8.94721 8.28608 8.70096C8.03983 8.45471 7.91671 8.16124 7.91671 7.82054V7.49992H3.58983C3.51497 7.49992 3.45351 7.52395 3.40546 7.572C3.3574 7.62006 3.33337 7.68152 3.33337 7.75638V16.4101C3.33337 16.485 3.3574 16.5464 3.40546 16.5945C3.45351 16.6426 3.51497 16.6666 3.58983 16.6666ZM5.12817 14.7595H9.87192V14.5126C9.87192 14.2979 9.81261 14.1005 9.694 13.9205C9.57539 13.7405 9.41136 13.6003 9.20192 13.4999C8.92955 13.3802 8.65365 13.2905 8.37421 13.2308C8.0949 13.1709 7.80351 13.141 7.50004 13.141C7.19657 13.141 6.90518 13.1709 6.62587 13.2308C6.34643 13.2905 6.07053 13.3802 5.79817 13.4999C5.58872 13.6003 5.42469 13.7405 5.30608 13.9205C5.18747 14.1005 5.12817 14.2979 5.12817 14.5126V14.7595ZM11.6667 13.4935H15V12.4999H11.6667V13.4935ZM7.50004 12.4999C7.8099 12.4999 8.07435 12.3904 8.29337 12.1714C8.5124 11.9523 8.62192 11.6879 8.62192 11.378C8.62192 11.0683 8.5124 10.8039 8.29337 10.5849C8.07435 10.3659 7.8099 10.2564 7.50004 10.2564C7.19018 10.2564 6.92574 10.3659 6.70671 10.5849C6.48768 10.8039 6.37817 11.0683 6.37817 11.378C6.37817 11.6879 6.48768 11.9523 6.70671 12.1714C6.92574 12.3904 7.19018 12.4999 7.50004 12.4999ZM11.6667 11.2499H15V10.2564H11.6667V11.2499ZM9.16671 7.82054H10.8334V3.33325H9.16671V7.82054Z" fill="#1C1B1F"/>
</g>
</svg>
