<svg width="20" height="20" viewBox="0 0 20 20" fill="none" xmlns="http://www.w3.org/2000/svg">
<mask id="mask0_319_446" style="mask-type:alpha" maskUnits="userSpaceOnUse" x="0" y="0" width="20" height="20">
<rect width="20" height="20" fill="#D9D9D9"/>
</mask>
<g mask="url(#mask0_319_446)">
<path d="M16.2852 17.1477L11.0513 11.9135C10.6346 12.2575 10.1554 12.5268 9.61375 12.7212C9.07209 12.9157 8.51174 13.0129 7.93271 13.0129C6.50841 13.0129 5.30299 12.5198 4.31646 11.5335C3.32993 10.5473 2.83667 9.34212 2.83667 7.91809C2.83667 6.4942 3.32979 5.28865 4.31604 4.30143C5.30229 3.31434 6.50743 2.8208 7.93146 2.8208C9.35535 2.8208 10.5609 3.31406 11.5481 4.30059C12.5352 5.28712 13.0288 6.49254 13.0288 7.91684C13.0288 8.51198 12.9289 9.08039 12.7292 9.62205C12.5293 10.1637 12.2627 10.6348 11.9294 11.0354L17.1633 16.2693L16.2852 17.1477ZM7.93271 11.7631C9.00646 11.7631 9.91591 11.3905 10.661 10.6452C11.4063 9.90004 11.779 8.99059 11.779 7.91684C11.779 6.84309 11.4063 5.93365 10.661 5.18851C9.91591 4.44323 9.00646 4.07059 7.93271 4.07059C6.85896 4.07059 5.94952 4.44323 5.20438 5.18851C4.4591 5.93365 4.08646 6.84309 4.08646 7.91684C4.08646 8.99059 4.4591 9.90004 5.20438 10.6452C5.94952 11.3905 6.85896 11.7631 7.93271 11.7631Z" fill="#F9AF2D"/>
</g>
</svg>
