<svg width="22" height="22" viewBox="0 0 22 22" fill="none" xmlns="http://www.w3.org/2000/svg">
<mask id="mask0_115_527" style="mask-type:alpha" maskUnits="userSpaceOnUse" x="0" y="0" width="22" height="22">
<rect width="22" height="22" fill="#D9D9D9"/>
</mask>
<g mask="url(#mask0_115_527)">
<path d="M14.025 14.9822L10.3125 11.2697V6.6458H11.6875V10.7302L14.9822 14.025L14.025 14.9822ZM3.1148 14.709C2.88686 14.2365 2.70734 13.7458 2.57626 13.2369C2.44533 12.7281 2.35985 12.2117 2.31982 11.6875H3.70903C3.74891 12.0905 3.82117 12.4877 3.92582 12.8791C4.03032 13.2706 4.16721 13.6514 4.33649 14.0215L3.1148 14.709ZM2.31982 10.3125C2.35985 9.78829 2.44686 9.26946 2.58085 8.75597C2.71483 8.24233 2.90046 7.74634 3.13772 7.26799L4.33649 7.95549C4.16141 8.32567 4.02307 8.70792 3.92147 9.10224C3.81972 9.49656 3.74891 9.89997 3.70903 10.3125H2.31982ZM6.08343 18.1887C5.63579 17.8773 5.22153 17.5304 4.84066 17.1478C4.45993 16.7653 4.11382 16.3501 3.8023 15.9023L5.00107 15.2061C5.2443 15.5515 5.51372 15.8721 5.80934 16.1677C6.10497 16.4633 6.4255 16.7327 6.77093 16.976L6.08343 18.1887ZM5.02399 6.77093L3.8023 6.08343C4.11382 5.63579 4.45993 5.22298 4.84066 4.84501C5.22153 4.46719 5.63579 4.1226 6.08343 3.81124L6.77093 5.02399C6.43482 5.26721 6.12048 5.53519 5.82791 5.82791C5.53518 6.12048 5.26721 6.43482 5.02399 6.77093ZM10.3125 19.6801C9.78829 19.6401 9.26946 19.5531 8.75597 19.4191C8.24233 19.2851 7.74634 19.0995 7.26799 18.8622L7.95549 17.6634C8.32567 17.8385 8.70792 17.9769 9.10224 18.0785C9.49656 18.1802 9.89997 18.251 10.3125 18.2909V19.6801ZM7.95549 4.33649L7.26799 3.13772C7.74634 2.90046 8.24233 2.71483 8.75597 2.58085C9.26946 2.44686 9.78829 2.35985 10.3125 2.31982V3.70903C9.89997 3.74891 9.49656 3.81972 9.10224 3.92147C8.70792 4.02307 8.32567 4.16141 7.95549 4.33649ZM11.6875 19.6801V18.2909C12.1 18.251 12.5034 18.1802 12.8977 18.0785C13.292 17.9769 13.6743 17.8385 14.0444 17.6634L14.7319 18.8622C14.2536 19.0995 13.7576 19.2851 13.244 19.4191C12.7305 19.5531 12.2116 19.6401 11.6875 19.6801ZM14.0444 4.33649C13.6743 4.16141 13.292 4.02307 12.8977 3.92147C12.5034 3.81972 12.1 3.74891 11.6875 3.70903V2.31982C12.2116 2.35985 12.7305 2.44686 13.244 2.58085C13.7576 2.71483 14.2536 2.90046 14.7319 3.13772L14.0444 4.33649ZM15.9165 18.1887L15.229 16.976C15.5651 16.7327 15.8795 16.4648 16.172 16.172C16.4648 15.8795 16.7327 15.5651 16.976 15.229L18.1887 15.9165C17.8773 16.3642 17.5327 16.7792 17.1549 17.1618C16.777 17.5444 16.3642 17.8867 15.9165 18.1887ZM16.976 6.76222C16.7327 6.42611 16.4648 6.11322 16.172 5.82355C15.8795 5.53373 15.5651 5.26721 15.229 5.02399L15.9165 3.81124C16.3642 4.11328 16.777 4.45176 17.1549 4.82668C17.5327 5.2016 17.8727 5.61287 18.1747 6.06051L16.976 6.76222ZM18.2909 10.3125C18.251 9.89997 18.1788 9.49656 18.0741 9.10224C17.9696 8.70792 17.8297 8.32277 17.6545 7.94678L18.8622 7.24508C19.0902 7.73289 19.2735 8.23355 19.4122 8.74703C19.5508 9.26067 19.6401 9.78248 19.6801 10.3125H18.2909ZM18.8622 14.7319L17.6634 14.0444C17.8385 13.6743 17.9769 13.292 18.0785 12.8977C18.1802 12.5034 18.251 12.1 18.2909 11.6875H19.6801C19.6401 12.2117 19.5531 12.7305 19.4191 13.244C19.2851 13.7576 19.0995 14.2536 18.8622 14.7319Z" fill="#1C1B1F"/>
</g>
</svg>
