<svg width="24" height="25" viewBox="0 0 24 25" fill="none" xmlns="http://www.w3.org/2000/svg">
<mask id="mask0_43_145" style="mask-type:alpha" maskUnits="userSpaceOnUse" x="0" y="0" width="24" height="25">
<rect y="0.5" width="24" height="24" fill="#D9D9D9"/>
</mask>
<g mask="url(#mask0_43_145)">
<path d="M12 11.5C13.1 11.5 14.0417 11.1083 14.825 10.325C15.6083 9.54167 16 8.6 16 7.5V4.5H8V7.5C8 8.6 8.39167 9.54167 9.175 10.325C9.95833 11.1083 10.9 11.5 12 11.5ZM4 22.5V20.5H6V17.5C6 16.4833 6.2375 15.5292 6.7125 14.6375C7.1875 13.7458 7.85 13.0333 8.7 12.5C7.85 11.9667 7.1875 11.2542 6.7125 10.3625C6.2375 9.47083 6 8.51667 6 7.5V4.5H4V2.5H20V4.5H18V7.5C18 8.51667 17.7625 9.47083 17.2875 10.3625C16.8125 11.2542 16.15 11.9667 15.3 12.5C16.15 13.0333 16.8125 13.7458 17.2875 14.6375C17.7625 15.5292 18 16.4833 18 17.5V20.5H20V22.5H4Z" fill="#0B1312"/>
</g>
</svg>
