<svg width="22" height="22" viewBox="0 0 22 22" fill="none" xmlns="http://www.w3.org/2000/svg">
<mask id="mask0_115_581" style="mask-type:alpha" maskUnits="userSpaceOnUse" x="0" y="0" width="22" height="22">
<rect width="22" height="22" fill="#D9D9D9"/>
</mask>
<g mask="url(#mask0_115_581)">
<path d="M10.3125 14.4728V6.77279L8.05269 9.0326L7.08652 8.03848L11 4.125L14.9135 8.03848L13.9473 9.0326L11.6875 6.77279V14.4728H10.3125ZM5.7821 17.875C5.31903 17.875 4.92708 17.7146 4.60625 17.3938C4.28542 17.0729 4.125 16.681 4.125 16.2179V13.7324H5.5V16.2179C5.5 16.2885 5.52941 16.3531 5.58823 16.4118C5.6469 16.4706 5.71152 16.5 5.7821 16.5H16.2179C16.2885 16.5 16.3531 16.4706 16.4118 16.4118C16.4706 16.3531 16.5 16.2885 16.5 16.2179V13.7324H17.875V16.2179C17.875 16.681 17.7146 17.0729 17.3938 17.3938C17.0729 17.7146 16.681 17.875 16.2179 17.875H5.7821Z" fill="#1C1B1F"/>
</g>
</svg>
